<svg width="105" height="23" viewBox="0 0 105 23" fill="none" xmlns="http://www.w3.org/2000/svg">
<path fill-rule="evenodd" clip-rule="evenodd" d="M94.5654 2.59397C95.8329 2.58536 97.0897 2.82719 98.2635 3.30561C99.4397 3.78498 100.509 4.4924 101.411 5.3871C102.312 6.28179 103.028 7.34607 103.516 8.51858C104.004 9.69109 104.256 10.9486 104.256 12.2188V17.25C104.256 17.8965 103.999 18.5165 103.542 18.9736C103.085 19.4307 102.465 19.6875 101.818 19.6875H100.381C99.7343 19.6875 99.1143 19.4307 98.6572 18.9736C98.2001 18.5165 97.9433 17.8965 97.9433 17.25V13.6563C97.9433 13.0098 98.2001 12.3898 98.6572 11.9327C99.1143 11.4756 99.7343 11.2188 100.381 11.2188H102.19C102.102 10.5564 101.928 9.90693 101.67 9.28745C101.283 8.35857 100.716 7.51545 100.002 6.80666C99.2878 6.09788 98.4404 5.53745 97.5086 5.15769C96.5769 4.77793 95.5791 4.58634 94.573 4.59397H94.5578C93.5517 4.58634 92.5539 4.77793 91.6221 5.15769C90.6904 5.53745 89.843 6.09788 89.1288 6.80666C88.4146 7.51545 87.8478 8.35857 87.461 9.28745C87.203 9.90693 87.0285 10.5564 86.9409 11.2188H88.75C89.3965 11.2188 90.0165 11.4756 90.4736 11.9327C90.9307 12.3898 91.1875 13.0098 91.1875 13.6563V17.25C91.1875 17.8965 90.9307 18.5165 90.4736 18.9736C90.0165 19.4307 89.3965 19.6875 88.75 19.6875H87.3125C86.666 19.6875 86.046 19.4307 85.5889 18.9736C85.1318 18.5165 84.875 17.8965 84.875 17.25V12.2188C84.875 10.9486 85.1264 9.69109 85.6147 8.51858C86.1029 7.34607 86.8184 6.28179 87.7199 5.3871C88.6215 4.4924 89.6911 3.78498 90.8673 3.30561C92.0411 2.82719 93.2979 2.58536 94.5654 2.59397ZM86.875 13.2188V17.25C86.875 17.366 86.9211 17.4773 87.0031 17.5594C87.0852 17.6414 87.1965 17.6875 87.3125 17.6875H88.75C88.866 17.6875 88.9773 17.6414 89.0594 17.5594C89.1414 17.4773 89.1875 17.366 89.1875 17.25V13.6563C89.1875 13.5402 89.1414 13.4289 89.0594 13.3469C88.9773 13.2648 88.866 13.2188 88.75 13.2188H86.875ZM102.256 13.2188H100.381C100.265 13.2188 100.153 13.2648 100.071 13.3469C99.9894 13.4289 99.9433 13.5402 99.9433 13.6563V17.25C99.9433 17.366 99.9894 17.4773 100.071 17.5594C100.153 17.6414 100.265 17.6875 100.381 17.6875H101.818C101.934 17.6875 102.046 17.6414 102.128 17.5594C102.21 17.4773 102.256 17.366 102.256 17.25V13.2188ZM94.5654 3.594V3.59403V3.594Z" fill="white"/>
<path d="M7.88086 7.43359H10.2246V17.6777C10.2246 18.6348 10.0163 19.4453 9.59961 20.1094C9.18945 20.7799 8.61328 21.2878 7.87109 21.6328C7.12891 21.9844 6.26628 22.1602 5.2832 22.1602C4.86003 22.1602 4.40104 22.1016 3.90625 21.9844C3.41797 21.8672 2.94596 21.6816 2.49023 21.4277C2.04102 21.1803 1.66667 20.8581 1.36719 20.4609L2.5293 18.9375C2.88086 19.3477 3.27799 19.6569 3.7207 19.8652C4.16341 20.0801 4.64193 20.1875 5.15625 20.1875C5.67708 20.1875 6.11979 20.0898 6.48438 19.8945C6.85547 19.7057 7.13867 19.4258 7.33398 19.0547C7.53581 18.6901 7.63672 18.2409 7.63672 17.707V9.8457L7.88086 7.43359ZM0.742188 12.8438V12.6387C0.742188 11.8314 0.839844 11.099 1.03516 10.4414C1.23047 9.77734 1.51042 9.20768 1.875 8.73242C2.24609 8.25716 2.69206 7.88932 3.21289 7.62891C3.74023 7.36849 4.33268 7.23828 4.99023 7.23828C5.68685 7.23828 6.27279 7.36523 6.74805 7.61914C7.22982 7.87305 7.62695 8.23438 7.93945 8.70312C8.25846 9.17188 8.50586 9.72852 8.68164 10.373C8.86393 11.0111 9.00391 11.7142 9.10156 12.4824V13.0391C9.01042 13.7878 8.86393 14.4746 8.66211 15.0996C8.4668 15.7246 8.20638 16.2715 7.88086 16.7402C7.55534 17.2025 7.15169 17.5605 6.66992 17.8145C6.18815 18.0684 5.62174 18.1953 4.9707 18.1953C4.31966 18.1953 3.73372 18.0618 3.21289 17.7949C2.69206 17.528 2.24609 17.1536 1.875 16.6719C1.51042 16.1901 1.23047 15.6237 1.03516 14.9727C0.839844 14.3216 0.742188 13.612 0.742188 12.8438ZM3.32031 12.6387V12.8438C3.32031 13.2995 3.36589 13.7259 3.45703 14.123C3.54818 14.5202 3.68815 14.8717 3.87695 15.1777C4.06576 15.4772 4.30339 15.7116 4.58984 15.8809C4.8763 16.0501 5.2181 16.1348 5.61523 16.1348C6.14909 16.1348 6.58529 16.0241 6.92383 15.8027C7.26888 15.5749 7.5293 15.2656 7.70508 14.875C7.88737 14.4779 8.00456 14.0319 8.05664 13.5371V12.0039C8.02409 11.6133 7.95247 11.252 7.8418 10.9199C7.73763 10.5879 7.59115 10.3014 7.40234 10.0605C7.21354 9.81966 6.97266 9.63086 6.67969 9.49414C6.38672 9.35742 6.03841 9.28906 5.63477 9.28906C5.24414 9.28906 4.90234 9.37695 4.60938 9.55273C4.31641 9.72201 4.07552 9.95964 3.88672 10.2656C3.69792 10.5716 3.55469 10.9264 3.45703 11.3301C3.36589 11.7337 3.32031 12.1699 3.32031 12.6387ZM24.2578 10.5293V11.2617C24.2578 12.3359 24.1146 13.3027 23.8281 14.1621C23.5417 15.015 23.1348 15.7409 22.6074 16.3398C22.0801 16.9388 21.4518 17.3978 20.7227 17.7168C19.9935 18.0358 19.1829 18.1953 18.291 18.1953C17.4121 18.1953 16.6048 18.0358 15.8691 17.7168C15.14 17.3978 14.5085 16.9388 13.9746 16.3398C13.4408 15.7409 13.0273 15.015 12.7344 14.1621C12.4414 13.3027 12.2949 12.3359 12.2949 11.2617V10.5293C12.2949 9.44857 12.4414 8.48177 12.7344 7.62891C13.0273 6.77604 13.4375 6.05013 13.9648 5.45117C14.4922 4.8457 15.1204 4.38346 15.8496 4.06445C16.5853 3.74544 17.3926 3.58594 18.2715 3.58594C19.1634 3.58594 19.974 3.74544 20.7031 4.06445C21.4323 4.38346 22.0605 4.8457 22.5879 5.45117C23.1217 6.05013 23.5319 6.77604 23.8184 7.62891C24.1113 8.48177 24.2578 9.44857 24.2578 10.5293ZM21.543 11.2617V10.5098C21.543 9.73503 21.4714 9.05469 21.3281 8.46875C21.1849 7.8763 20.9733 7.37826 20.6934 6.97461C20.4134 6.57096 20.0684 6.26823 19.6582 6.06641C19.248 5.85807 18.7858 5.75391 18.2715 5.75391C17.7507 5.75391 17.2884 5.85807 16.8848 6.06641C16.4876 6.26823 16.1491 6.57096 15.8691 6.97461C15.5892 7.37826 15.3743 7.8763 15.2246 8.46875C15.0814 9.05469 15.0098 9.73503 15.0098 10.5098V11.2617C15.0098 12.0299 15.0814 12.7103 15.2246 13.3027C15.3743 13.8952 15.5892 14.3965 15.8691 14.8066C16.1556 15.2103 16.5007 15.5163 16.9043 15.7246C17.3079 15.9329 17.7702 16.0371 18.291 16.0371C18.8118 16.0371 19.2741 15.9329 19.6777 15.7246C20.0814 15.5163 20.4199 15.2103 20.6934 14.8066C20.9733 14.3965 21.1849 13.8952 21.3281 13.3027C21.4714 12.7103 21.543 12.0299 21.543 11.2617ZM33.9746 14.3086C33.9746 14.0352 33.9323 13.791 33.8477 13.5762C33.7695 13.3548 33.623 13.1562 33.4082 12.9805C33.1999 12.7982 32.9036 12.6224 32.5195 12.4531C32.1419 12.2773 31.6536 12.0951 31.0547 11.9062C30.3906 11.6979 29.7721 11.4635 29.1992 11.2031C28.6263 10.9427 28.1217 10.64 27.6855 10.2949C27.2559 9.94987 26.9206 9.55273 26.6797 9.10352C26.4388 8.64779 26.3184 8.12044 26.3184 7.52148C26.3184 6.93555 26.4421 6.40169 26.6895 5.91992C26.9434 5.43815 27.3014 5.02474 27.7637 4.67969C28.2259 4.32812 28.7695 4.05794 29.3945 3.86914C30.026 3.68034 30.7227 3.58594 31.4844 3.58594C32.5391 3.58594 33.4505 3.77799 34.2188 4.16211C34.9935 4.54622 35.5924 5.06706 36.0156 5.72461C36.4388 6.38216 36.6504 7.12109 36.6504 7.94141H33.9746C33.9746 7.4987 33.8802 7.10807 33.6914 6.76953C33.5091 6.43099 33.2292 6.16406 32.8516 5.96875C32.4805 5.77344 32.0117 5.67578 31.4453 5.67578C30.8984 5.67578 30.4427 5.75716 30.0781 5.91992C29.7201 6.08268 29.4499 6.30404 29.2676 6.58398C29.0918 6.86393 29.0039 7.17643 29.0039 7.52148C29.0039 7.7819 29.0658 8.01628 29.1895 8.22461C29.3132 8.42643 29.4987 8.61849 29.7461 8.80078C29.9935 8.97656 30.2995 9.14258 30.6641 9.29883C31.0352 9.44857 31.4648 9.59831 31.9531 9.74805C32.7344 9.98242 33.418 10.2428 34.0039 10.5293C34.5964 10.8158 35.0879 11.1413 35.4785 11.5059C35.8757 11.8704 36.1719 12.2806 36.3672 12.7363C36.569 13.1921 36.6699 13.7096 36.6699 14.2891C36.6699 14.901 36.5495 15.4479 36.3086 15.9297C36.0677 16.4115 35.7227 16.8216 35.2734 17.1602C34.8242 17.4987 34.2839 17.7559 33.6523 17.9316C33.0273 18.1074 32.3275 18.1953 31.5527 18.1953C30.8626 18.1953 30.179 18.1042 29.502 17.9219C28.8314 17.7331 28.2227 17.4531 27.6758 17.082C27.1289 16.7044 26.6927 16.2292 26.3672 15.6562C26.0417 15.0768 25.8789 14.3997 25.8789 13.625H28.5742C28.5742 14.0742 28.6458 14.4583 28.7891 14.7773C28.9388 15.0898 29.1471 15.347 29.4141 15.5488C29.6875 15.7441 30.0065 15.8874 30.3711 15.9785C30.7357 16.0697 31.1296 16.1152 31.5527 16.1152C32.0996 16.1152 32.5488 16.0404 32.9004 15.8906C33.2585 15.7344 33.5254 15.5195 33.7012 15.2461C33.8835 14.9727 33.9746 14.6602 33.9746 14.3086ZM44.8438 3.78125V18H42.168V3.78125H44.8438ZM49.2578 3.78125V5.90039H37.8027V3.78125H49.2578ZM48.6328 16.7402C48.6328 16.3496 48.7663 16.0208 49.0332 15.7539C49.3001 15.487 49.6615 15.3535 50.1172 15.3535C50.5729 15.3535 50.9342 15.487 51.2012 15.7539C51.4681 16.0208 51.6016 16.3496 51.6016 16.7402C51.6016 17.1243 51.4681 17.4499 51.2012 17.7168C50.9342 17.9772 50.5729 18.1074 50.1172 18.1074C49.6615 18.1074 49.3001 17.9772 49.0332 17.7168C48.7663 17.4499 48.6328 17.1243 48.6328 16.7402ZM57.5879 18H54.9902V6.45703C54.9902 5.66276 55.1432 4.99544 55.4492 4.45508C55.7552 3.9082 56.1914 3.49479 56.7578 3.21484C57.3242 2.9349 57.9915 2.79492 58.7598 2.79492C59.0137 2.79492 59.2546 2.8112 59.4824 2.84375C59.7168 2.8763 59.9479 2.92188 60.1758 2.98047L60.127 4.94336C60.0033 4.91081 59.8665 4.88802 59.7168 4.875C59.5736 4.86198 59.4141 4.85547 59.2383 4.85547C58.8867 4.85547 58.5872 4.91732 58.3398 5.04102C58.0924 5.16471 57.9036 5.34701 57.7734 5.58789C57.6497 5.82227 57.5879 6.11198 57.5879 6.45703V18ZM59.7266 7.43359V9.28906H53.3984V7.43359H59.7266ZM63.8867 9.60156V18H61.3086V7.43359H63.7402L63.8867 9.60156ZM63.5059 12.3359H62.7148C62.7148 11.6003 62.8027 10.9232 62.9785 10.3047C63.1608 9.6862 63.4277 9.14909 63.7793 8.69336C64.1309 8.23112 64.5638 7.87305 65.0781 7.61914C65.599 7.36523 66.2012 7.23828 66.8848 7.23828C67.36 7.23828 67.7962 7.3099 68.1934 7.45312C68.5905 7.58984 68.9323 7.80794 69.2188 8.10742C69.5117 8.40039 69.7363 8.78451 69.8926 9.25977C70.0488 9.72852 70.127 10.2917 70.127 10.9492V18H67.5488V11.2129C67.5488 10.7181 67.4772 10.3307 67.334 10.0508C67.1973 9.77083 66.9987 9.57552 66.7383 9.46484C66.4779 9.34766 66.1654 9.28906 65.8008 9.28906C65.3971 9.28906 65.0488 9.37044 64.7559 9.5332C64.4694 9.68945 64.2318 9.90755 64.043 10.1875C63.8607 10.4674 63.724 10.7897 63.6328 11.1543C63.5482 11.5189 63.5059 11.9128 63.5059 12.3359ZM69.9316 11.8574L68.8672 12.0527C68.8737 11.3887 68.9648 10.7669 69.1406 10.1875C69.3164 9.60156 69.5736 9.09049 69.9121 8.6543C70.2572 8.21159 70.6836 7.86654 71.1914 7.61914C71.7057 7.36523 72.2982 7.23828 72.9688 7.23828C73.4896 7.23828 73.9583 7.31315 74.375 7.46289C74.7982 7.60612 75.1595 7.83724 75.459 8.15625C75.7585 8.46875 75.9863 8.87565 76.1426 9.37695C76.3053 9.87826 76.3867 10.4902 76.3867 11.2129V18H73.7891V11.2031C73.7891 10.6888 73.7174 10.2949 73.5742 10.0215C73.4375 9.74805 73.2389 9.55924 72.9785 9.45508C72.7181 9.3444 72.4121 9.28906 72.0605 9.28906C71.7025 9.28906 71.39 9.35742 71.123 9.49414C70.8626 9.62435 70.6413 9.80664 70.459 10.041C70.2832 10.2754 70.1497 10.5488 70.0586 10.8613C69.974 11.1673 69.9316 11.4993 69.9316 11.8574Z" fill="white"/>
</svg>
